<?xml version="1.0" standalone="no"?>
<!DOCTYPE svg PUBLIC "-//W3C//DTD SVG 20010904//EN"
 "http://www.w3.org/TR/2001/REC-SVG-20010904/DTD/svg10.dtd">
<svg version="1.0" xmlns="http://www.w3.org/2000/svg"
 width="300.000000pt" height="240.000000pt" viewBox="0 0 300.000000 240.000000"
 preserveAspectRatio="xMidYMid meet">

<g transform="translate(0.000000,240.000000) scale(0.100000,-0.100000)"
fill="#000000" stroke="none">
<path fill="#000000" d="M1323 2230 c-123 -62 -181 -202 -143 -342 16 -56 69 -119 133 -157
l57 -34 0 -232 0 -232 -52 -27 -52 -27 -159 159 -159 159 16 66 c46 182 -72
343 -260 355 -62 4 -80 1 -128 -21 -110 -51 -170 -143 -170 -262 0 -87 31
-153 100 -214 78 -68 180 -87 281 -52 l52 17 170 -170 c144 -144 170 -175 165
-193 l-6 -23 -237 0 -237 0 -12 33 c-18 51 -77 113 -134 141 -58 29 -157 36
-219 14 -118 -40 -193 -149 -191 -280 2 -152 128 -273 282 -273 112 1 205 58
256 158 l24 47 245 0 244 0 15 -27 c8 -16 25 -39 39 -51 20 -19 27 -38 32 -85
8 -77 45 -156 92 -197 32 -28 34 -34 20 -42 -9 -5 -17 -21 -17 -36 0 -17 -8
-32 -21 -40 -19 -12 -21 -20 -16 -79 3 -39 10 -69 18 -74 58 -36 236 -35 334
2 l57 21 -7 72 c-3 39 -13 78 -21 87 -8 8 -14 22 -14 30 0 8 -4 19 -10 25 -7
7 -4 24 7 53 15 38 15 46 1 90 -11 33 -12 54 -6 66 6 9 8 45 6 79 -9 112 -23
106 262 106 l246 0 12 -33 c19 -53 78 -113 140 -144 47 -23 70 -28 127 -27 89
1 149 28 210 96 130 145 79 370 -103 450 -57 26 -177 22 -237 -7 -50 -25 -106
-83 -130 -134 l-18 -41 -239 0 -238 0 0 28 c0 22 32 59 169 196 l169 169 46
-13 c60 -16 151 -8 203 18 61 32 96 65 128 124 26 46 30 63 30 133 0 70 -4 87
-30 133 -49 90 -128 141 -231 150 -112 9 -212 -45 -272 -146 -24 -42 -27 -57
-27 -137 0 -69 4 -98 19 -124 l18 -34 -158 -158 -159 -159 -57 28 -57 27 0
232 -1 231 37 13 c22 7 62 37 95 69 45 45 60 69 73 115 29 100 6 197 -66 279
-78 90 -221 113 -336 56z m254 -25 c186 -102 176 -373 -18 -462 l-59 -27 0
-251 0 -251 49 -18 c28 -10 55 -24 62 -32 6 -8 15 -14 20 -14 4 0 85 77 179
171 l172 171 -23 52 c-31 69 -32 165 -2 221 45 85 153 155 240 155 84 0 194
-74 234 -157 66 -137 -14 -312 -165 -359 -50 -16 -64 -16 -114 -5 -31 7 -65
14 -74 15 -10 0 -94 -76 -198 -179 l-182 -180 9 -40 8 -40 256 -3 255 -2 18
50 c35 98 152 168 261 157 87 -9 173 -66 212 -142 21 -39 29 -153 14 -198 -45
-134 -192 -207 -333 -165 -53 16 -130 86 -153 140 -10 24 -20 44 -21 46 -2 4
-526 4 -529 0 -1 -2 -10 -18 -19 -35 -12 -24 -23 -33 -41 -33 -31 0 -31 10 -1
55 69 101 29 242 -85 301 -141 72 -309 -31 -309 -191 0 -48 27 -126 48 -139
13 -8 2 -58 -12 -53 -6 2 -26 25 -43 53 l-32 49 -260 -5 -260 -5 -28 -55 c-52
-99 -142 -147 -258 -137 -76 6 -113 26 -169 87 -125 140 -61 363 120 416 132
38 258 -21 314 -148 l21 -48 253 0 254 0 10 43 11 42 -183 183 -183 182 -44
-20 c-58 -26 -159 -27 -214 -1 -98 44 -155 131 -155 235 0 193 201 322 368
237 129 -66 181 -191 136 -325 l-17 -48 175 -175 174 -174 62 33 62 33 0 253
0 253 -35 15 c-89 37 -165 145 -165 235 0 110 78 222 176 253 68 22 150 15
211 -19z m-62 -1072 c66 -17 125 -101 125 -178 0 -56 -34 -129 -56 -121 -9 3
-22 6 -31 6 -11 0 -10 5 6 26 45 57 35 145 -23 189 -44 33 -102 41 -145 18
-54 -28 -75 -65 -78 -134 -3 -88 -16 -103 -38 -45 -30 77 -1 168 66 213 59 39
100 45 174 26z m-12 -84 c54 -24 75 -120 38 -169 -16 -19 -28 -24 -65 -25 -36
0 -45 3 -42 15 15 53 17 82 6 95 -19 23 -56 18 -79 -11 -21 -26 -25 -22 -22
21 1 11 17 35 36 53 37 34 82 42 128 21z m-76 -96 c7 -19 -14 -133 -28 -147
-5 -6 -9 -21 -8 -35 1 -25 1 -25 11 4 14 39 47 75 69 75 10 0 27 -9 37 -21 11
-11 26 -19 33 -18 22 4 57 -10 63 -27 4 -10 13 -13 31 -8 20 5 26 1 35 -21 13
-34 13 -82 0 -90 -5 -3 -10 1 -10 9 0 9 -4 16 -10 16 -13 0 -13 3 10 -65 11
-32 20 -69 20 -82 0 -30 -22 -73 -48 -94 -11 -9 -21 -22 -23 -28 -5 -14 -89
-25 -133 -17 -29 6 -36 11 -36 30 0 14 -14 32 -40 52 -21 16 -52 52 -67 79
-25 45 -28 59 -28 150 0 89 3 107 28 160 42 89 78 120 94 78z m243 -566 c0
-32 -3 -35 -51 -50 -31 -10 -84 -17 -134 -17 -81 0 -83 1 -89 26 -4 14 -4 34
-1 44 5 15 11 16 43 9 54 -12 142 -10 182 5 50 19 50 19 50 -17z"/>
<path fill="#000000" d="M1365 2176 c-109 -50 -157 -191 -102 -297 45 -86 157 -135 249 -107
58 17 133 92 148 149 25 92 -24 201 -109 246 -51 27 -138 31 -186 9z m175 -18
c68 -35 103 -86 108 -158 5 -70 -8 -111 -52 -159 -40 -43 -83 -61 -146 -61
-218 0 -275 291 -75 381 54 25 112 24 165 -3z"/>
<path fill="#000000" d="M1330 2030 l0 -70 52 0 c63 0 54 -17 -12 -22 -41 -3 -45 -5 -51 -35
-3 -18 -4 -35 -1 -38 3 -3 65 -5 139 -5 144 0 146 1 121 55 -9 21 -18 25 -54
25 -24 0 -46 5 -49 10 -4 6 13 10 45 10 l51 0 -3 68 -3 67 -117 3 -118 3 0
-71z m129 39 l92 -2 -3 -41 -3 -41 -97 -3 -98 -3 0 51 c0 28 4 49 8 46 5 -3
50 -6 101 -7z"/>
<path fill="#000000" d="M2116 1855 c-122 -43 -175 -205 -103 -314 94 -142 293 -130 374 22
24 45 23 141 -2 188 -54 98 -165 141 -269 104z m170 -26 c12 -10 12 -14 2 -21
-9 -6 -5 -7 10 -3 18 5 25 2 29 -14 3 -11 9 -19 13 -16 13 8 27 -18 39 -73 15
-71 14 -98 -4 -116 -8 -8 -15 -19 -15 -25 0 -17 -72 -81 -92 -81 -11 0 -17 -3
-15 -7 3 -5 -19 -9 -47 -11 -57 -3 -152 29 -141 48 3 5 0 10 -8 10 -8 0 -24
19 -36 43 -17 34 -21 56 -19 107 3 71 16 84 40 42 9 -15 32 -34 52 -42 l35
-13 -5 -59 -5 -58 29 0 c17 0 32 6 35 13 3 8 11 6 28 -9 35 -30 69 -21 69 18
0 18 -7 36 -17 44 -15 11 -16 15 -4 26 11 10 14 10 18 1 11 -29 82 35 83 73 0
12 -11 33 -25 48 -19 20 -33 26 -68 26 -49 0 -75 -18 -55 -38 9 -9 9 -12 0
-12 -7 0 -12 -13 -12 -30 0 -24 -3 -28 -17 -23 -20 6 -73 61 -73 74 0 5 -7 9
-15 9 -8 0 -15 5 -15 10 0 17 -28 11 -39 -7 -6 -10 -10 -13 -10 -8 0 24 62 76
104 88 32 9 135 0 151 -14z m-46 -63 c0 -3 -4 -8 -10 -11 -5 -3 -10 -1 -10 4
0 6 5 11 10 11 6 0 10 -2 10 -4z m-138 -41 c-2 -4 9 -21 25 -37 15 -17 21 -27
13 -23 -8 5 -21 17 -29 28 -7 10 -19 16 -26 13 -18 -7 -39 20 -31 40 6 15 9
15 29 1 12 -8 20 -18 19 -22z m208 26 c0 -5 -7 -11 -15 -15 -8 -3 -15 0 -15 6
0 6 -2 9 -5 6 -9 -8 17 -58 30 -58 6 0 16 5 23 12 16 16 15 -3 -2 -24 -7 -10
-26 -18 -43 -18 -17 0 -36 -7 -43 -15 -9 -11 -16 -13 -24 -5 -7 7 -6 14 2 22
7 7 12 24 12 39 0 17 8 34 22 43 24 17 58 21 58 7z m-138 -166 c0 -14 -29 -31
-38 -22 -9 8 16 39 28 35 5 -2 10 -8 10 -13z"/>
<path fill="#000000" d="M625 1843 c-42 -11 -103 -64 -124 -106 -26 -53 -28 -144 -5 -190 36
-71 89 -111 165 -122 127 -19 239 79 239 209 0 68 -12 102 -53 145 -56 59
-142 84 -222 64z m132 -29 c-3 -3 -12 -4 -19 -1 -8 3 -5 6 6 6 11 1 17 -2 13
-5z m-124 -42 c-4 -10 -2 -13 5 -8 12 7 17 -6 6 -17 -8 -7 -35 3 -30 12 2 3
-14 5 -36 4 l-41 -1 29 23 c23 18 33 21 50 13 14 -7 20 -16 17 -26z m107 -27
c-11 -13 -60 -9 -60 5 0 12 21 17 47 12 17 -3 21 -8 13 -17z m110 4 c0 -6 -4
-7 -10 -4 -5 3 -10 11 -10 16 0 6 5 7 10 4 6 -3 10 -11 10 -16z m-212 -48 c6
-8 12 -25 12 -38 0 -13 5 -23 10 -23 6 0 10 -9 10 -20 0 -24 -13 -26 -30 -5
-7 8 -25 15 -40 15 -19 0 -33 8 -45 28 l-18 27 25 -23 c22 -20 27 -21 37 -8 7
8 10 20 6 25 -3 7 0 8 9 5 23 -9 20 6 -6 35 -20 22 -20 23 -3 11 11 -8 26 -21
33 -29z m183 29 c10 -6 19 -19 19 -29 0 -28 -39 -71 -63 -71 -13 0 -49 -26
-85 -60 -35 -33 -68 -60 -73 -60 -22 0 -4 30 51 85 35 35 60 68 60 80 0 28 30
65 53 65 10 0 27 -5 38 -10z m-141 -10 c0 -5 -2 -10 -4 -10 -3 0 -8 5 -11 10
-3 6 -1 10 4 10 6 0 11 -4 11 -10z m-85 -10 c3 -5 1 -10 -4 -10 -6 0 -11 5
-11 10 0 6 2 10 4 10 3 0 8 -4 11 -10z m-15 -25 c13 -14 21 -25 18 -25 -2 0
-15 11 -28 25 -13 14 -21 25 -18 25 2 0 15 -11 28 -25z m-73 -67 c-2 -13 -4
-5 -4 17 -1 22 1 32 4 23 2 -10 2 -28 0 -40z m39 11 c19 -22 19 -22 -3 -8 -13
8 -23 17 -23 21 0 12 6 9 26 -13z m284 -4 c-22 -23 -20 -30 5 -25 6 1 4 -4 -3
-12 -11 -11 -14 -10 -22 1 -9 15 17 60 34 61 5 0 -1 -11 -14 -25z m-219 -32
c13 -16 12 -17 -3 -4 -10 7 -18 15 -18 17 0 8 8 3 21 -13z m169 -3 c0 -5 -4
-10 -10 -10 -5 0 -10 5 -10 10 0 6 5 10 10 10 6 0 10 -4 10 -10z m-190 -4 c0
-9 -30 -14 -35 -6 -4 6 3 10 14 10 12 0 21 -2 21 -4z m168 -45 c31 -37 -3 -43
-37 -7 -26 28 -20 55 7 34 10 -6 23 -19 30 -27z m68 -36 c-14 -13 -28 -19 -32
-14 -8 14 17 41 33 35 8 -3 13 0 12 7 -3 25 4 41 8 19 3 -16 -4 -31 -21 -47z
m-132 -1 c18 -17 22 -54 6 -54 -5 0 -10 9 -10 21 0 16 -4 19 -20 14 -22 -7
-26 5 -8 23 15 15 13 15 32 -4z m86 -24 c0 -5 -5 -10 -11 -10 -5 0 -7 5 -4 10
3 6 8 10 11 10 2 0 4 -4 4 -10z"/>
<path fill="#000000" d="M335 1116 c-141 -63 -169 -266 -49 -364 146 -120 376 7 348 193 -9
62 -59 133 -114 162 -50 26 -136 31 -185 9z m150 -126 c24 -16 49 -30 56 -30
6 0 20 -9 30 -21 15 -17 16 -24 6 -40 -14 -23 -23 -24 -30 -5 -4 10 -17 13
-46 9 -34 -5 -41 -3 -41 11 0 9 5 16 10 16 6 0 10 13 10 29 0 26 -4 30 -41 36
-29 5 -38 10 -28 16 21 13 27 11 74 -21z m-98 4 c-3 -3 -12 -4 -19 -1 -8 3 -5
6 6 6 11 1 17 -2 13 -5z m-17 -46 c7 -18 15 -36 18 -40 2 -5 -17 -6 -42 -3
-34 3 -48 0 -54 -11 -8 -14 -10 -14 -22 1 -25 30 15 71 80 84 3 1 12 -14 20
-31z m80 3 c0 -30 -25 -45 -44 -26 -26 26 -20 45 14 45 23 0 30 -5 30 -19z"/>
<path fill="#000000" d="M2395 1116 c-118 -53 -163 -214 -88 -318 54 -76 148 -111 233 -88 58
16 135 92 150 150 27 96 -21 203 -111 247 -51 26 -137 30 -184 9z m131 -122
c-3 -26 -6 -55 -6 -65 0 -11 -7 -19 -16 -19 -8 0 -12 -4 -9 -10 3 -5 -3 -10
-15 -10 -12 0 -18 4 -15 10 5 9 -68 5 -102 -5 -7 -2 -15 0 -18 5 -4 6 5 10 19
10 35 0 43 20 17 39 l-22 17 26 24 c29 27 36 23 52 -33 l13 -42 -6 40 c-3 22
-8 50 -10 63 -4 20 -1 22 47 22 l52 0 -7 -46z m55 -43 c-33 -21 -27 -44 9 -39
17 3 30 0 30 -6 0 -7 -18 -10 -48 -8 l-49 4 8 46 c4 26 8 53 8 60 1 7 14 0 32
-15 30 -28 30 -28 10 -42z m-207 -7 c20 -8 11 -24 -15 -24 -10 0 -19 7 -19 15
0 16 9 19 34 9z m251 -3 c7 -12 -31 -25 -46 -15 -8 4 -7 9 2 15 18 11 36 11
44 0z"/>
</g>
</svg>
