<?xml version="1.0" standalone="no"?>
<!DOCTYPE svg PUBLIC "-//W3C//DTD SVG 20010904//EN"
 "http://www.w3.org/TR/2001/REC-SVG-20010904/DTD/svg10.dtd">
<svg version="1.0" xmlns="http://www.w3.org/2000/svg"
 width="554.000000pt" height="373.000000pt" viewBox="0 0 554.000000 373.000000"
 preserveAspectRatio="xMidYMid meet">

<g transform="translate(0.000000,373.000000) scale(0.100000,-0.100000)"
fill="#000000" stroke="none">
<path d="M690 3255 c-8 -10 -11 -31 -7 -60 l7 -45 -39 -6 c-47 -8 -50 -9 -83
-59 -16 -22 -37 -52 -49 -66 -26 -32 -20 -56 24 -104 32 -34 32 -36 26 -112
-3 -43 -3 -82 -1 -86 2 -5 14 -7 26 -5 21 4 21 2 17 -121 -3 -126 13 -285 31
-308 11 -14 78 -18 78 -5 0 4 -7 18 -16 31 -12 17 -13 26 -5 34 8 8 11 8 11
-2 0 -21 43 -50 73 -51 32 0 33 3 7 38 -17 25 -18 35 -10 112 25 222 33 261
52 271 10 5 18 18 18 28 0 23 14 29 93 37 l62 6 -3 -187 c-2 -103 0 -191 5
-196 13 -13 52 1 52 19 1 37 31 228 38 242 5 8 10 -43 13 -115 l5 -130 53 -3
c31 -2 52 1 52 7 0 6 -9 11 -20 11 -11 0 -21 6 -21 13 -4 41 5 140 17 187 8
30 14 74 14 98 l0 44 33 -7 c44 -10 47 -12 47 -44 0 -38 -49 -280 -61 -304
-14 -24 -6 -31 19 -18 12 6 34 11 50 11 29 0 29 1 40 83 7 45 12 95 12 112 0
16 7 48 16 72 14 37 19 41 35 32 17 -9 19 -23 19 -154 l0 -145 24 -6 c14 -3
34 -3 45 1 24 7 26 45 12 170 -5 39 -6 72 -4 75 6 6 45 -40 77 -90 69 -106 18
-238 -131 -338 -84 -56 -132 -77 -146 -63 -17 17 -45 13 -67 -9 -27 -27 -101
-40 -224 -41 -90 0 -130 7 -98 18 6 3 12 20 12 38 0 38 -35 79 -58 70 -7 -3
-18 -5 -23 -5 -15 0 -39 -64 -33 -87 5 -20 3 -20 -42 -12 -67 13 -145 51 -213
104 -47 37 -63 57 -80 101 -11 31 -21 72 -21 92 0 54 44 140 98 190 28 27 35
37 17 24 -74 -50 -125 -139 -125 -216 0 -63 37 -146 81 -184 51 -43 141 -102
156 -102 26 0 133 -33 133 -41 0 -5 -17 -17 -37 -28 -62 -32 -80 -58 -98 -149
-13 -62 -14 -90 -7 -110 6 -15 14 -51 18 -81 5 -41 11 -55 25 -58 15 -4 19
-15 19 -48 0 -43 0 -43 -42 -50 -39 -6 -134 -31 -165 -42 -10 -4 -13 13 -13
66 0 65 4 79 39 144 55 101 58 124 26 188 -15 29 -34 74 -41 100 -14 46 -17
49 -74 70 -64 23 -72 37 -50 93 6 16 6 27 0 31 -6 4 -10 15 -10 25 0 23 -26
50 -48 50 -46 -1 -74 -75 -51 -133 7 -15 9 -30 7 -33 -3 -2 -36 -12 -74 -22
-60 -15 -69 -20 -75 -46 -5 -16 -19 -41 -32 -55 -12 -14 -33 -49 -46 -77 l-23
-52 32 -58 c17 -33 39 -67 47 -76 9 -10 13 -27 10 -40 -3 -13 -7 -63 -8 -113
-2 -87 -1 -90 22 -96 13 -3 32 -2 42 3 17 9 18 5 11 -62 -6 -69 -8 -73 -58
-123 -32 -33 -68 -85 -96 -141 -39 -76 -45 -98 -48 -162 -3 -41 1 -96 7 -121
20 -79 84 -173 158 -234 84 -69 91 -73 216 -114 223 -73 382 -70 660 13 175
53 352 197 434 354 26 50 28 61 28 178 0 117 -2 128 -28 180 -15 31 -48 76
-73 100 l-46 45 7 95 c12 155 5 227 -24 245 -18 10 -13 33 8 40 25 8 35 53 26
121 -5 44 -10 54 -25 54 -10 0 -31 10 -46 23 -26 23 -26 24 -10 56 10 18 18
45 19 59 2 20 9 28 27 32 85 17 240 132 278 205 22 44 28 152 9 196 -19 45
-71 106 -110 125 -29 16 -30 16 -24 82 6 63 1 86 -27 154 -5 11 -1 18 13 23
18 5 21 15 21 56 0 50 -1 51 -40 66 -34 14 -39 20 -34 37 4 12 10 26 15 32 6
7 5 22 -1 38 -7 20 -16 26 -39 26 -23 0 -30 -5 -34 -27 -3 -15 -1 -37 4 -50 7
-20 5 -25 -17 -33 -14 -6 -33 -10 -43 -10 -31 0 -45 -112 -17 -134 11 -9 11
-25 3 -84 -10 -67 -13 -73 -31 -68 -12 3 -28 6 -37 6 -14 0 -16 15 -12 118 5
134 -1 153 -60 192 -30 19 -37 28 -32 45 13 38 10 67 -7 79 -26 16 -53 -4 -54
-40 -1 -16 -2 -34 -3 -40 0 -6 -17 -18 -37 -27 -59 -28 -83 -124 -56 -222 28
-100 31 -91 -35 -98 -33 -4 -67 -9 -76 -13 -27 -10 -21 48 13 127 l31 69 -22
42 c-12 24 -25 57 -28 73 -6 25 -14 32 -53 44 l-46 14 1 51 c0 28 -2 57 -7 64
-10 17 -51 15 -66 -3z m-90 -291 c0 -8 -4 -12 -10 -9 -5 3 -10 13 -10 21 0 8
5 12 10 9 6 -3 10 -13 10 -21z m247 -16 c-3 -8 -6 -5 -6 6 -1 11 2 17 5 13 3
-3 4 -12 1 -19z m563 -199 c0 -11 -4 -17 -10 -14 -5 3 -10 13 -10 21 0 8 5 14
10 14 6 0 10 -9 10 -21z m-690 -249 c0 -49 -4 -90 -9 -90 -16 0 -23 107 -10
145 7 19 14 35 16 35 2 0 3 -40 3 -90z m498 -427 c23 -50 17 -54 -78 -66 -32
-4 -46 -159 -18 -194 7 -8 8 -58 3 -139 -7 -122 -8 -126 -29 -120 -11 3 -38 9
-60 12 l-39 7 9 61 c12 93 9 296 -5 339 -9 25 -26 47 -56 67 -70 48 -68 54 16
47 41 -3 103 -2 139 2 104 13 104 13 118 -16z m-1038 -210 c-1 -27 -1 -27 -15
-9 -14 19 -12 36 6 36 5 0 9 -12 9 -27z m327 -25 c-3 -7 -5 -2 -5 12 0 14 2
19 5 13 2 -7 2 -19 0 -25z m759 -356 c-8 -7 -36 19 -36 34 0 7 5 25 12 41 11
28 11 28 20 -21 5 -27 7 -51 4 -54z m-541 -119 c-8 -217 -8 -221 -2 -276 5
-47 9 -50 45 -42 23 5 29 11 30 33 0 32 27 249 37 307 15 81 20 56 25 -120 l5
-180 58 -9 c42 -7 61 -6 70 3 9 9 7 13 -10 17 -26 7 -36 32 -27 68 3 13 7 58
8 98 2 40 8 91 14 113 6 22 12 67 12 101 0 33 2 63 5 66 3 3 30 -2 59 -10 l54
-15 -5 -56 c-7 -87 -66 -324 -96 -388 -6 -13 -8 -26 -4 -29 11 -11 57 6 57 21
0 16 16 20 24 7 3 -5 18 -7 34 -4 28 4 29 6 40 85 6 45 14 114 17 152 7 86 26
175 36 175 4 0 20 -11 35 -24 l28 -23 1 -169 c0 -131 4 -174 15 -191 19 -29
60 -30 83 -2 16 18 17 34 12 142 -7 132 -6 133 41 43 105 -200 -10 -456 -271
-604 -109 -62 -172 -85 -290 -106 -197 -35 -443 -9 -575 61 -36 19 -67 38 -70
43 -3 4 -22 19 -42 33 -37 24 -88 78 -88 92 0 4 -8 19 -19 33 -26 37 -51 126
-51 182 0 101 63 240 144 320 l46 44 0 -114 c0 -154 19 -338 37 -356 17 -16
93 -19 93 -4 0 6 -7 25 -16 41 -8 17 -12 38 -9 47 6 15 8 14 16 -5 4 -13 14
-23 20 -23 7 0 17 -7 23 -16 7 -8 31 -18 54 -21 50 -7 57 11 16 46 -24 21 -25
26 -20 89 9 120 26 275 38 362 14 99 24 111 113 134 82 21 96 24 129 25 l29 1
-8 -197z m-381 -275 c-10 -34 -20 -17 -33 55 -11 62 -10 78 3 116 9 24 17 53
17 65 1 11 6 -33 10 -99 4 -66 6 -128 3 -137z"/>
<path d="M3837 3023 c-4 -3 -7 -30 -7 -59 l0 -53 -54 -11 c-43 -9 -55 -16 -60
-34 -3 -12 -19 -40 -36 -61 -38 -48 -38 -81 0 -124 28 -31 30 -40 30 -110 0
-77 0 -77 -41 -116 -48 -47 -64 -76 -72 -130 l-6 -40 11 35 c21 70 30 88 63
120 22 22 45 34 64 34 l30 1 4 -190 c3 -104 6 -200 8 -213 5 -27 25 -42 57
-42 22 0 31 23 12 35 -5 3 -9 16 -9 28 1 17 2 18 6 5 2 -10 13 -18 24 -18 10
0 19 -4 19 -9 0 -5 14 -12 31 -16 39 -9 60 8 30 24 -15 9 -21 21 -21 47 0 73
32 310 46 338 8 16 14 44 14 63 l0 33 86 0 85 0 -7 -157 c-4 -87 -7 -166 -6
-175 1 -10 2 -31 3 -48 2 -26 6 -30 33 -30 27 0 31 4 32 28 3 69 21 243 27
248 8 8 20 -135 16 -195 -2 -29 0 -52 6 -53 6 0 15 -2 20 -3 6 -2 27 -3 48 -4
23 -1 36 -5 32 -11 -4 -6 5 -10 19 -10 14 0 26 4 26 10 0 5 16 8 35 6 19 -1
35 -2 35 -2 0 1 5 53 9 117 9 107 44 249 62 249 8 0 19 -38 19 -68 0 -20 -2
-22 -22 -11 -22 12 -22 11 -8 -7 8 -10 19 -22 24 -26 5 -3 10 -58 10 -121 2
-137 20 -174 63 -131 12 12 15 32 11 100 -2 46 -1 84 3 84 3 0 27 -24 53 -54
54 -64 73 -130 62 -220 -7 -50 -12 -59 -61 -104 -71 -66 -127 -90 -232 -102
-147 -17 -150 -16 -158 28 -9 51 -31 82 -59 82 -33 0 -56 -30 -56 -73 0 -28
-4 -37 -17 -38 -15 0 -14 -2 3 -9 12 -4 24 -18 27 -30 4 -16 -1 -23 -19 -31
-14 -5 -30 -9 -36 -9 -34 0 -88 -25 -94 -44 -4 -12 -27 -50 -51 -86 -40 -57
-44 -70 -40 -106 3 -28 17 -58 43 -93 l40 -51 -9 -100 c-11 -120 -7 -134 33
-128 42 6 39 -15 -7 -55 -45 -40 -93 -105 -93 -126 0 -9 13 5 28 30 15 26 44
61 64 78 l37 32 5 -238 c2 -131 7 -259 11 -285 6 -44 10 -48 43 -58 40 -11 72
-13 72 -5 0 3 -7 21 -15 41 -14 33 -11 64 5 64 5 0 6 -9 3 -20 -4 -13 1 -22
13 -26 11 -4 26 -13 34 -20 23 -19 90 -22 90 -5 0 5 -7 16 -15 25 -27 27 -34
61 -25 132 5 38 14 125 20 194 19 227 20 230 46 240 22 9 23 12 18 90 -4 63
-2 85 9 98 8 9 27 41 41 70 34 67 37 132 9 187 -12 22 -26 59 -33 83 -12 39
-17 44 -71 63 -37 14 -61 29 -65 41 -9 28 -1 32 69 29 82 -3 259 34 319 66 54
29 124 118 134 169 7 40 -10 120 -34 156 -59 88 -74 106 -111 133 l-41 30 3
116 c1 84 -2 120 -11 132 -11 13 -10 20 8 45 17 23 20 37 15 65 -4 22 -14 39
-25 42 -34 11 -44 32 -30 64 22 55 -13 96 -61 71 -18 -10 -20 -18 -15 -51 5
-32 3 -40 -14 -49 -10 -6 -25 -9 -31 -8 -32 7 -52 -100 -26 -131 10 -12 12
-33 6 -86 -14 -133 -28 -230 -39 -270 -11 -43 -43 -148 -46 -153 -1 -2 -12 1
-23 8 -19 10 -21 17 -15 83 3 40 9 92 14 117 11 53 24 231 23 312 -1 100 -9
123 -53 152 -34 23 -39 29 -30 46 25 46 8 80 -41 80 -19 0 -20 -3 -23 -67 -1
-15 -16 -32 -47 -51 -38 -24 -48 -38 -59 -77 -17 -61 -1 -179 27 -200 16 -12
7 -14 -69 -14 -53 0 -88 5 -88 11 0 5 14 31 31 56 41 60 47 102 22 139 -11 15
-26 45 -32 65 -10 30 -19 39 -54 51 -41 13 -42 14 -43 64 0 27 -4 55 -8 61 -8
13 -48 16 -59 5z m-107 -295 c0 -18 -2 -20 -9 -8 -6 8 -7 18 -5 22 9 14 14 9
14 -14z m255 -7 c3 -5 1 -12 -5 -16 -5 -3 -10 1 -10 9 0 18 6 21 15 7z m-135
-540 c-13 -25 -23 67 -14 127 l8 57 7 -85 c3 -47 3 -91 -1 -99z m220 -638 c0
-22 -2 -25 -10 -13 -13 20 -13 40 0 40 6 0 10 -12 10 -27z m332 -35 c-9 -9
-12 -4 -11 23 0 32 1 33 11 11 8 -17 8 -26 0 -34z m-173 -635 c0 -100 -3 -122
-11 -103 -17 42 -11 230 8 230 2 0 4 -57 3 -127z"/>
<path d="M2463 2938 c-34 -44 -14 -141 33 -159 19 -7 23 -13 17 -22 -6 -6 -11
-80 -12 -163 -2 -126 0 -154 13 -167 21 -21 20 -26 -4 -20 -11 3 -20 9 -20 13
0 4 -21 17 -46 29 -39 19 -44 25 -38 44 4 12 17 35 30 50 22 26 24 37 24 141
l0 113 -52 -8 c-91 -14 -94 -16 -112 -64 -10 -25 -25 -51 -35 -58 -27 -19 -51
-59 -51 -85 0 -13 18 -47 40 -74 22 -28 40 -56 40 -62 1 -6 2 -56 3 -111 l2
-100 35 1 35 1 -3 -74 c-2 -40 -7 -73 -11 -73 -4 0 -36 -18 -70 -40 -34 -22
-65 -40 -70 -40 -24 0 -202 93 -194 101 5 5 38 15 73 22 l65 13 -45 7 c-67 10
-402 38 -406 34 -2 -2 11 -18 28 -36 18 -19 42 -48 53 -66 30 -48 121 -146
128 -138 4 3 7 26 7 50 0 24 2 43 4 43 18 0 226 -88 226 -96 0 -2 -13 -30 -30
-61 -41 -77 -43 -174 -4 -252 15 -28 28 -50 30 -48 2 1 -7 23 -19 48 -18 35
-22 61 -22 129 0 75 3 90 28 132 l28 47 54 -24 c29 -13 56 -21 59 -17 13 12 5
22 -18 22 -14 0 -28 5 -31 10 -3 6 -15 10 -26 10 -10 0 -19 5 -19 10 0 11 23
14 34 3 3 -4 22 -12 41 -19 29 -10 36 -9 50 6 21 23 20 25 -26 45 l-41 19 24
18 c13 10 40 28 61 39 l37 19 0 -128 c0 -77 6 -149 14 -182 8 -29 12 -59 9
-66 -7 -19 38 -44 80 -44 l39 0 -22 36 c-20 35 -21 64 -1 64 5 0 8 -8 7 -17 0
-11 7 -19 21 -21 12 -2 27 -10 33 -18 14 -15 90 -20 90 -5 0 5 -12 18 -27 29
-31 23 -32 33 -14 196 24 210 42 304 62 309 17 4 19 16 19 83 0 52 5 83 14 93
24 27 76 133 76 154 0 11 -13 41 -28 66 -15 25 -34 65 -40 88 -11 38 -17 44
-55 53 -23 6 -51 14 -61 17 -13 4 -17 1 -14 -8 30 -79 55 -231 49 -299 -3 -36
-35 -80 -58 -80 -15 0 -17 16 -3 25 13 8 13 120 -1 210 -18 126 -19 134 -9
140 6 3 10 17 10 31 0 13 5 33 12 43 9 15 8 27 -3 57 -13 34 -19 39 -50 42
-21 2 -40 -2 -46 -10z m-143 -375 c-1 -24 -2 -26 -11 -10 -5 9 -7 22 -4 27 10
17 15 11 15 -17z m355 -12 c3 -5 1 -12 -5 -16 -5 -3 -10 1 -10 9 0 18 6 21 15
7z m-285 -84 c0 -2 -10 -12 -22 -23 l-23 -19 19 23 c18 21 26 27 26 19z m-516
-309 c17 -1 0 -4 -39 -8 l-70 -6 55 -9 55 -9 -40 -7 -40 -6 40 -3 c39 -2 39
-3 10 -10 -16 -4 -24 -8 -17 -9 7 0 10 -6 7 -12 -4 -6 2 -13 14 -16 11 -3 19
-8 17 -12 -2 -3 3 -15 11 -26 15 -20 15 -20 10 2 -5 24 7 41 18 24 10 -17 -6
-60 -20 -55 -13 6 -135 158 -135 170 0 4 21 4 46 0 26 -3 61 -7 78 -8z m131
-29 c-21 -5 -42 -14 -45 -19 -4 -6 -17 -6 -35 -1 l-30 9 30 1 c17 1 37 6 45
11 8 5 29 9 45 9 27 -1 27 -2 -10 -10z m-7 -46 c-10 -2 -26 -2 -35 0 -10 3 -2
5 17 5 19 0 27 -2 18 -5z m501 -158 c1 -56 -11 -98 -21 -79 -3 5 -10 34 -17
64 -11 48 -11 61 3 94 9 21 17 48 17 60 3 37 17 -77 18 -139z m-449 127 c35
-6 34 -6 -15 -12 -48 -5 -95 5 -95 21 0 8 40 4 110 -9z m35 -32 c16 -7 11 -9
-22 -9 -23 -1 -45 4 -48 9 -8 12 42 12 70 0z m88 -17 c-7 -2 -21 -2 -30 0 -10
3 -4 5 12 5 17 0 24 -2 18 -5z m-60 -10 c-7 -2 -19 -2 -25 0 -7 3 -2 5 12 5
14 0 19 -2 13 -5z m112 -13 c-27 -12 -43 -12 -25 0 8 5 22 9 30 9 10 0 8 -3
-5 -9z m-60 -10 c-3 -5 -12 -7 -20 -3 -21 7 -19 13 6 13 11 0 18 -4 14 -10z
m125 -10 c0 -5 -6 -10 -14 -10 -8 0 -18 5 -21 10 -3 6 3 10 14 10 12 0 21 -4
21 -10z"/>
<path d="M3011 2904 c-30 -21 -51 -72 -51 -123 0 -37 -3 -41 -40 -57 -42 -19
-89 -84 -117 -164 -17 -46 -2 -115 40 -181 l30 -49 16 33 c12 25 14 35 4 44
-6 7 -19 36 -29 65 -14 45 -15 53 -2 62 8 6 19 20 25 30 9 16 12 13 26 -30 23
-71 24 -135 4 -165 -16 -22 -16 -25 -1 -36 17 -12 16 -20 -12 -175 l-5 -27
-132 3 c-127 4 -128 4 -32 -4 55 -4 113 -11 129 -15 26 -7 28 -10 22 -47 -4
-21 -15 -67 -25 -101 -41 -131 -49 -164 -56 -215 -6 -43 -12 -56 -31 -64 -36
-17 -29 -28 16 -28 22 0 40 4 40 10 0 5 21 9 47 7 l48 -2 11 90 c17 134 35
214 44 191 6 -19 7 -19 12 2 4 12 14 22 24 22 16 0 16 -1 -2 -21 -14 -16 -16
-24 -7 -37 11 -18 25 -19 57 -7 17 8 18 2 16 -111 -2 -65 -2 -127 -2 -136 4
-38 86 -11 97 31 4 14 9 77 11 140 2 62 5 115 7 117 2 2 31 -24 64 -59 66 -68
95 -138 95 -228 0 -40 -4 -63 -27 -137 -3 -9 -19 -5 -58 14 l-53 26 -38 -34
-37 -34 56 -23 c30 -13 55 -26 55 -31 0 -22 -112 -89 -188 -113 -175 -56 -347
-58 -532 -7 -137 38 -293 129 -259 151 8 5 23 9 34 9 42 1 45 14 12 56 l-32
41 -55 -19 c-30 -10 -64 -22 -75 -27 -43 -19 -108 -42 -176 -60 l-71 -19 4 59
c2 32 2 59 0 59 -20 0 -284 -262 -275 -271 9 -9 482 -14 490 -6 5 6 -70 41
-109 50 -48 12 -33 25 72 62 25 8 68 25 97 37 l52 21 42 -38 c68 -61 247 -132
392 -155 109 -18 293 -8 382 20 93 29 194 76 222 102 12 12 28 17 35 14 7 -4
49 -26 92 -49 44 -23 79 -46 78 -52 0 -5 -30 -17 -66 -26 -81 -19 -89 -26 -40
-34 22 -4 52 -11 68 -16 16 -5 77 -13 137 -19 60 -6 140 -16 179 -24 40 -7 70
-9 70 -4 0 11 -199 265 -229 292 l-21 19 0 -61 c0 -34 -2 -62 -5 -62 -3 0 -36
17 -73 38 -100 57 -105 60 -126 66 -14 5 -16 9 -7 19 23 28 42 104 42 165 0
82 -41 169 -116 249 -30 31 -55 59 -55 60 0 1 18 8 40 14 21 7 38 15 36 18 -3
3 2 17 10 31 7 14 13 21 14 17 0 -5 -5 -17 -10 -28 -8 -15 -7 -19 4 -19 11 0
17 -15 22 -50 10 -77 13 -76 149 92 30 36 55 69 55 72 0 18 -28 0 -68 -41
l-44 -48 21 38 c24 44 28 70 6 41 -8 -10 -15 -15 -15 -10 0 5 -11 -1 -25 -14
-27 -25 -32 -21 -15 11 15 26 -6 26 -22 -1 -7 -11 -16 -20 -21 -20 -4 0 -3 9
3 20 12 22 1 27 -19 8 -8 -7 -11 -8 -8 -2 4 7 -20 11 -76 11 l-81 0 39 -17 40
-17 -39 -17 c-21 -9 -40 -16 -43 -16 -2 0 -3 17 -1 38 l3 37 110 3 c161 3 170
9 17 11 l-133 1 2 124 c2 104 -1 127 -14 141 -10 9 -17 18 -17 19 0 1 -5 28
-11 59 -8 46 -7 61 4 78 15 20 15 20 46 -13 34 -37 38 -59 16 -102 -19 -36
-19 -50 0 -66 8 -7 12 -16 9 -21 -3 -5 -2 -9 3 -9 13 1 73 144 73 175 0 6 -26
43 -58 81 -32 38 -61 77 -64 86 -4 9 -17 18 -30 20 -21 3 -23 9 -28 80 -5 63
-10 82 -30 103 -27 29 -47 31 -79 9z m-27 -180 c-5 -20 -1 -31 21 -52 27 -24
28 -25 41 -7 8 10 15 25 15 32 1 7 3 18 4 23 1 6 3 13 4 17 1 9 61 -48 61 -59
0 -5 -12 -7 -27 -6 -24 3 -28 -1 -34 -34 -7 -43 -38 -118 -49 -118 -13 0 -40
78 -40 113 0 46 -14 65 -34 48 -24 -20 -20 4 6 39 27 37 41 38 32 4z m46 -240
c0 -8 -5 -12 -10 -9 -6 4 -8 11 -5 16 9 14 15 11 15 -7z m10 -34 c0 -5 -4 -10
-10 -10 -5 0 -10 5 -10 10 0 6 5 10 10 10 6 0 10 -4 10 -10z m34 -304 c6 -70
5 -78 -9 -72 -9 3 -28 9 -41 12 -13 3 -24 8 -24 10 0 3 11 31 25 64 14 33 25
67 25 77 1 46 18 -18 24 -91z m236 -46 c0 -13 -20 -13 -40 0 -12 8 -9 10 13
10 15 0 27 -4 27 -10z m-252 -56 c30 -19 28 -32 -5 -40 -16 -3 -38 -9 -50 -14
-29 -12 -32 -6 -19 40 11 43 23 45 74 14z m242 18 c0 -4 -7 -17 -15 -28 -8
-12 -11 -24 -8 -28 3 -3 -3 -6 -14 -6 -15 0 -20 5 -18 18 2 9 4 22 4 29 1 10
16 18 44 22 4 0 7 -2 7 -7z m87 -13 c-8 -30 2 -52 18 -39 8 7 7 -2 -4 -23
l-16 -34 -8 39 c-5 21 -13 38 -19 38 -6 0 -3 9 7 20 23 26 29 25 22 -1z m-175
-31 l-22 -22 0 21 c0 12 7 23 18 25 27 6 28 -1 4 -24z m-132 -53 c0 -5 -5 -3
-10 5 -10 15 -11 13 -14 -24 0 -11 -7 -21 -14 -24 -11 -3 -12 0 -4 14 5 11 7
25 4 33 -6 18 20 34 30 18 4 -7 8 -16 8 -22z m-819 -428 c-13 -12 -20 -15 -16
-7 14 26 28 41 33 35 3 -3 -5 -16 -17 -28z m979 3 c12 -8 9 -10 -13 -10 -16 0
-26 4 -22 10 8 12 16 12 35 0z m-1023 -20 c1 -16 -1 -17 -12 -7 -7 6 -11 15
-8 20 8 13 19 7 20 -13z m93 0 c-11 -20 -30 -28 -30 -12 0 11 22 32 32 32 5 0
4 -9 -2 -20z m-438 -120 c-21 -21 -24 -22 -17 -5 4 11 8 29 9 40 1 11 5 27 10
34 5 8 -6 4 -25 -9 l-34 -23 33 34 c17 19 33 41 33 49 1 8 5 -10 9 -40 7 -50
5 -57 -18 -80z m288 111 c0 -6 -4 -12 -9 -15 -5 -3 -7 -14 -4 -25 3 -11 -2
-21 -13 -25 -22 -8 -30 0 -16 17 7 8 9 17 5 20 -7 8 15 37 28 37 5 0 9 -4 9
-9z m100 -16 c-7 -8 -17 -15 -23 -15 -5 0 -2 9 8 20 21 23 35 19 15 -5z m1035
15 c3 -5 -3 -10 -14 -10 -11 0 -23 5 -26 10 -3 6 3 10 14 10 11 0 23 -4 26
-10z m-65 -10 c0 -5 -9 -10 -19 -10 -11 0 -23 5 -26 10 -4 6 5 10 19 10 14 0
26 -4 26 -10z m-1041 -26 c-13 -7 -26 -10 -28 -8 -8 7 33 33 43 27 5 -3 -2
-12 -15 -19z m-102 8 c20 -13 4 -47 -28 -59 -36 -14 -37 -4 -4 27 19 18 22 26
13 32 -7 4 -8 8 -3 8 6 0 15 -4 22 -8z m1193 -2 c-8 -5 -22 -9 -30 -9 -10 0
-8 3 5 9 27 12 43 12 25 0z m-1250 -19 c-5 -11 -10 -28 -10 -39 0 -19 -24 -32
-59 -32 -10 0 -9 6 7 23 11 12 22 27 23 32 5 26 13 35 30 35 16 0 18 -3 9 -19z
m1390 -17 c0 -3 -16 -2 -36 2 -27 5 -35 4 -30 -5 5 -7 -1 -11 -13 -11 -32 0
-25 16 12 27 29 9 67 2 67 -13z m-1481 -13 c-13 -11 -26 -17 -29 -14 -3 2 6
13 19 24 13 11 26 17 29 15 3 -3 -6 -14 -19 -25z m1776 -116 c19 -27 46 -62
60 -77 l26 -28 -38 0 c-21 1 -67 7 -103 15 l-65 14 85 -4 c47 -2 72 -1 55 2
-26 5 -27 6 -10 13 15 5 7 9 -32 15 -29 4 -53 11 -53 17 0 6 17 7 43 4 30 -4
36 -3 22 3 -11 5 -30 10 -42 10 -12 1 -25 6 -28 12 -5 7 6 8 32 5 28 -5 33 -4
18 3 -14 7 -15 10 -5 11 9 0 3 7 -13 16 -15 8 -25 19 -22 24 4 6 1 10 -4 10
-6 0 -11 7 -11 15 0 8 -4 15 -8 15 -5 0 -9 -7 -9 -15 0 -8 4 -15 9 -15 5 0 6
-4 3 -10 -14 -23 -25 -7 -25 38 l1 47 40 -45 c22 -25 55 -67 74 -95z m-250
107 c23 -18 23 -18 -41 -18 -35 0 -64 3 -64 7 0 4 10 5 23 2 17 -4 19 -2 8 5
-11 8 -8 11 15 15 16 2 31 5 32 6 2 0 14 -7 27 -17z m-1690 -22 c-9 -17 -24
-36 -35 -43 -11 -6 -20 -16 -20 -21 0 -6 5 -5 12 2 15 15 32 16 23 2 -11 -18
3 -11 31 15 31 29 46 25 19 -5 -23 -26 -8 -26 25 0 33 26 48 26 25 0 -20 -22
-8 -28 14 -7 8 7 11 7 8 1 -5 -8 8 -11 41 -9 26 1 55 -2 65 -7 10 -5 17 -5 17
0 0 5 -15 14 -32 20 -18 5 -25 10 -16 11 24 1 98 -31 98 -43 0 -5 -46 -6 -112
-3 -62 4 -149 7 -192 7 l-79 0 59 55 c32 30 60 54 62 55 1 0 -4 -14 -13 -30z
m1766 -20 c10 -6 19 -14 19 -18 0 -12 -110 -1 -138 14 -26 13 -24 14 36 14 35
0 72 -5 83 -10z m9 -40 c23 -7 22 -8 -10 -9 -19 0 -42 4 -50 9 -12 8 -10 10
10 9 14 -1 36 -5 50 -9z m77 -44 c4 -3 -7 -6 -24 -6 -17 0 -45 -3 -62 -6 -36
-7 -42 6 -8 22 21 9 81 3 94 -10z m-121 -15 c5 -5 20 -11 34 -14 14 -2 -7 -4
-47 -3 -68 1 -82 8 -38 19 33 8 41 7 51 -2z"/>
<path d="M1999 1453 c-13 -16 -12 -17 4 -4 16 13 21 21 13 21 -2 0 -10 -8 -17
-17z"/>
<path d="M4390 2505 c14 -7 27 -11 30 -9 6 7 -22 24 -40 23 -9 0 -5 -6 10 -14z"/>
<path d="M3600 2264 c0 -10 5 -26 10 -34 8 -11 9 -7 4 15 -8 37 -14 45 -14 19z"/>
<path d="M3620 2205 c0 -5 9 -23 20 -40 26 -39 26 -25 0 17 -11 18 -20 29 -20
23z"/>
<path d="M3685 2110 c10 -11 20 -20 22 -20 2 0 -2 9 -9 20 -7 11 -17 20 -22
20 -5 0 -1 -9 9 -20z"/>
<path d="M3745 2046 c22 -19 45 -35 50 -36 12 0 -41 45 -70 61 -11 6 -2 -5 20
-25z"/>
<path d="M3840 1985 c15 -19 182 -94 220 -100 25 -4 18 1 -25 17 -33 11 -93
38 -132 58 -40 20 -68 32 -63 25z"/>
<path d="M4726 1897 c-13 -10 -19 -28 -20 -68 -2 -65 -8 -76 -45 -84 -47 -10
-72 -46 -87 -127 -16 -86 -18 -134 -4 -143 6 -3 10 -26 10 -51 0 -31 6 -50 20
-64 13 -13 20 -33 20 -58 l0 -39 -100 5 c-71 3 -100 1 -100 -7 0 -7 20 -11 54
-11 29 0 74 -3 100 -6 l47 -7 -3 -258 c-2 -141 -1 -259 2 -262 3 -2 22 -2 42
0 34 5 36 7 27 30 -6 17 -5 32 5 51 7 15 16 68 19 117 3 50 12 115 19 145 12
53 13 48 16 -122 2 -168 3 -177 23 -183 11 -4 23 -4 26 -1 4 3 12 1 19 -5 15
-12 84 -4 84 10 0 4 -11 13 -24 19 -24 11 -25 13 -20 104 3 51 10 127 15 168
6 41 14 125 20 185 5 61 12 130 17 155 12 68 -2 238 -23 281 -10 22 -34 46
-56 59 -43 24 -45 29 -25 69 16 31 12 66 -12 94 -18 20 -42 22 -66 4z"/>
<path d="M4108 1873 c6 -2 18 -2 25 0 6 3 1 5 -13 5 -14 0 -19 -2 -12 -5z"/>
<path d="M5122 1833 c-16 -32 -22 -72 -12 -78 5 -3 10 -17 10 -29 0 -25 -22
-36 -73 -36 -36 0 -47 -29 -47 -125 0 -54 4 -76 15 -82 11 -7 13 -20 5 -70 -4
-34 -12 -107 -15 -162 -4 -56 -9 -101 -10 -101 -1 0 -18 7 -38 15 -29 12 -36
12 -40 1 -4 -9 9 -20 34 -31 49 -23 50 -37 8 -195 -17 -63 -33 -128 -36 -145
-3 -16 -12 -39 -19 -50 -8 -11 -14 -23 -14 -27 0 -15 40 -8 58 10 13 13 29 17
54 14 l35 -4 11 59 c6 32 14 94 17 138 9 113 50 289 75 318 10 11 30 -104 30
-167 l0 -47 -31 22 c-24 16 -33 19 -39 9 -5 -8 6 -25 31 -47 l39 -35 0 -114
c0 -101 2 -116 20 -134 24 -24 60 -27 60 -5 0 8 7 15 15 15 12 0 15 14 15 63
l0 62 26 -33 c14 -18 30 -29 36 -26 6 4 8 3 5 -3 -3 -5 5 -31 18 -58 14 -26
27 -63 31 -81 3 -19 9 -32 13 -30 8 5 -4 -193 -13 -219 -6 -16 -6 -17 3 -5 8
11 11 12 11 2 0 -7 5 -10 11 -6 8 5 8 9 -1 14 -9 6 -9 9 -1 15 7 4 9 16 6 28
-5 17 -4 19 4 7 6 -8 11 -10 12 -5 1 13 17 -26 18 -44 1 -11 -4 -9 -15 5 -12
14 -14 15 -11 3 3 -9 0 -22 -6 -28 -9 -9 -9 -14 2 -20 10 -7 11 -13 1 -32 -11
-23 -10 -23 4 -5 9 12 13 28 10 39 -4 12 -2 17 4 13 6 -3 16 10 23 31 21 63
-5 264 -32 247 -5 -3 -6 3 -2 12 4 10 2 15 -4 11 -5 -3 -9 4 -9 16 1 12 -4 21
-10 20 -7 -1 -10 5 -7 15 2 11 -7 30 -24 47 -15 16 -21 25 -13 20 8 -5 3 7
-12 26 -15 18 -32 33 -38 31 -6 -1 -9 1 -6 6 3 5 -1 18 -9 28 -14 18 -14 17
-16 -11 -1 -20 -6 -7 -14 35 -17 80 -19 241 -4 310 9 42 8 64 -6 118 -9 37
-21 73 -27 80 -9 10 -5 19 17 36 30 24 34 48 21 118 -5 28 -13 39 -31 44 -38
10 -58 38 -50 73 4 17 11 31 16 31 12 0 1 69 -14 88 -14 18 -65 15 -75 -5z
m345 -1265 c-3 -8 -6 -5 -6 6 -1 11 2 17 5 13 3 -3 4 -12 1 -19z m0 -50 c-3
-7 -5 -2 -5 12 0 14 2 19 5 13 2 -7 2 -19 0 -25z m0 -50 c-3 -7 -5 -2 -5 12 0
14 2 19 5 13 2 -7 2 -19 0 -25z"/>
<path d="M3953 860 c0 -47 2 -66 4 -42 2 23 2 61 0 85 -2 23 -4 4 -4 -43z"/>
<path d="M3971 705 c0 -5 6 -21 14 -35 8 -14 14 -20 14 -15 0 6 -6 21 -14 35
-8 14 -14 21 -14 15z"/>
<path d="M4015 610 c9 -16 18 -30 21 -30 2 0 -2 14 -11 30 -9 17 -18 30 -21
30 -2 0 2 -13 11 -30z"/>
<path d="M4100 492 c0 -5 12 -19 27 -33 l26 -24 -23 33 c-25 33 -30 38 -30 24z"/>
<path d="M4179 416 c14 -14 29 -26 34 -26 13 0 -12 29 -37 42 -19 10 -18 8 3
-16z"/>
<path d="M5400 391 c0 -7 -4 -10 -9 -7 -5 3 -11 -1 -15 -9 -3 -8 0 -17 6 -21
7 -5 8 -2 3 6 -5 9 -4 11 3 6 17 -11 15 -29 -3 -22 -10 3 -33 -11 -62 -39 -26
-25 -50 -45 -55 -45 -13 0 -9 -17 7 -33 13 -13 13 -16 -1 -21 -8 -3 -13 -2
-10 2 2 4 1 13 -2 20 -6 8 -25 2 -67 -19 -59 -29 -85 -48 -53 -36 10 3 20 2
23 -2 5 -10 -64 -25 -73 -17 -3 3 3 6 13 6 10 0 16 3 12 6 -3 3 -15 3 -28 -1
-17 -6 -19 -9 -8 -16 9 -6 -4 -8 -36 -8 -45 2 -47 2 -15 8 19 3 -40 6 -132 6
-93 0 -168 -3 -168 -7 0 -10 19 -11 150 -11 l105 0 -75 -7 c-65 -6 -59 -7 40
-5 115 3 250 28 250 47 0 5 10 7 23 4 15 -4 13 -1 -7 8 -24 11 -26 14 -11 20
11 4 25 0 34 -9 15 -13 22 -11 67 19 49 33 128 121 99 110 -13 -5 -13 -2 2 24
14 25 15 34 5 44 -9 9 -12 9 -12 -1z m-12 -79 c2 -7 -4 -12 -13 -12 -12 0 -15
-5 -11 -16 5 -12 2 -15 -10 -10 -8 3 -18 6 -20 6 -3 0 3 11 13 25 19 25 34 28
41 7z m-84 -57 c-15 -23 -15 -25 0 -19 9 3 14 10 11 14 -3 4 2 11 11 14 15 6
15 4 2 -16 -8 -12 -20 -24 -26 -26 -18 -6 -26 26 -12 43 21 25 32 17 14 -10z
m-51 -46 c4 -16 3 -18 -9 -8 -7 6 -11 15 -8 20 8 13 11 11 17 -12z m-63 -29
c0 -5 -2 -10 -4 -10 -3 0 -8 5 -11 10 -3 6 -1 10 4 10 6 0 11 -4 11 -10z"/>
<path d="M4230 365 c0 -6 77 -55 86 -55 4 0 -12 14 -34 30 -41 29 -52 35 -52
25z"/>
<path d="M4337 299 c7 -7 15 -10 18 -7 3 3 -2 9 -12 12 -14 6 -15 5 -6 -5z"/>
<path d="M4370 281 c0 -4 33 -23 73 -42 39 -19 74 -37 77 -40 8 -9 100 -32
106 -26 3 3 -14 11 -37 17 -24 6 -83 31 -131 55 -49 24 -88 40 -88 36z"/>
<path d="M4660 160 c14 -4 34 -8 45 -8 16 0 15 2 -5 8 -14 4 -34 8 -45 8 -16
0 -15 -2 5 -8z"/>
</g>
</svg>
